<?xml version="1.0" encoding="UTF-8" standalone="no"?>
<svg xmlns:dc="http://purl.org/dc/elements/1.1/" xmlns:cc="http://creativecommons.org/ns#" xmlns:rdf="http://www.w3.org/1999/02/22-rdf-syntax-ns#" xmlns:svg="http://www.w3.org/2000/svg" xmlns="http://www.w3.org/2000/svg" xmlns:sodipodi="http://sodipodi.sourceforge.net/DTD/sodipodi-0.dtd" xmlns:inkscape="http://www.inkscape.org/namespaces/inkscape" width="32px" height="32px" viewBox="0 0 32 32.000001" id="svg2" version="1.1" inkscape:version="0.91 r13725" sodipodi:docname="mail email heart like letter envelope message.svg">
  <defs id="defs4"/>
  <sodipodi:namedview id="base" pagecolor="#ffffff" bordercolor="#666666" borderopacity="1.0" inkscape:pageopacity="0.0" inkscape:pageshadow="2" inkscape:zoom="11.2" inkscape:cx="5.920911" inkscape:cy="7.1787666" inkscape:document-units="px" inkscape:current-layer="layer1" showgrid="false" units="px" inkscape:snap-bbox="true" inkscape:bbox-paths="true" inkscape:bbox-nodes="true" inkscape:snap-bbox-midpoints="true" inkscape:snap-bbox-edge-midpoints="true" inkscape:window-width="1366" inkscape:window-height="715" inkscape:window-x="-8" inkscape:window-y="-8" inkscape:window-maximized="1">
    <inkscape:grid type="xygrid" id="grid3358"/>
  </sodipodi:namedview>
  
  <g inkscape:label="Layer 1" inkscape:groupmode="layer" id="layer1" transform="translate(0,-1020.3622)">
    <path style="color:#000000;font-style:normal;font-variant:normal;font-weight:normal;font-stretch:normal;font-size:medium;line-height:normal;font-family:sans-serif;text-indent:0;text-align:start;text-decoration:none;text-decoration-line:none;text-decoration-style:solid;text-decoration-color:#000000;letter-spacing:normal;word-spacing:normal;text-transform:none;direction:ltr;block-progression:tb;writing-mode:lr-tb;baseline-shift:baseline;text-anchor:start;white-space:normal;clip-rule:nonzero;display:inline;overflow:visible;visibility:visible;opacity:1;isolation:auto;mix-blend-mode:normal;color-interpolation:sRGB;color-interpolation-filters:linearRGB;solid-color:#000000;solid-opacity:1;fill:#000000;fill-opacity:1;fill-rule:nonzero;stroke:none;stroke-width:0.99999994;stroke-linecap:round;stroke-linejoin:round;stroke-miterlimit:4;stroke-dasharray:none;stroke-dashoffset:1.29999995;stroke-opacity:1;color-rendering:auto;image-rendering:auto;shape-rendering:auto;text-rendering:auto;enable-background:accumulate" d="M 16.005859 6.5 A 0.50005006 0.50005006 0 0 0 15.957031 6.5019531 A 0.50005006 0.50005006 0 0 0 15.6875 6.6015625 L 13.179688 8.4804688 L 8.5039062 8.4804688 L 8.5039062 8.9804688 L 8.5039062 11.984375 L 6.8378906 13.232422 A 0.50005006 0.50005006 0 0 0 6.5117188 13.910156 A 0.50004997 0.50004997 0 0 0 6.5039062 14.007812 L 6.5039062 24.974609 A 0.50005 0.50005 0 0 0 6.5058594 25.050781 A 0.50005 0.50005 0 0 0 6.5253906 25.148438 A 0.50004997 0.50004997 0 0 0 6.5429688 25.193359 A 0.50005 0.50005 0 0 0 6.5429688 25.195312 A 0.50004997 0.50004997 0 0 0 6.5644531 25.238281 A 0.50005 0.50005 0 0 0 6.5644531 25.240234 A 0.50005 0.50005 0 0 0 6.7324219 25.419922 A 0.50004997 0.50004997 0 0 0 6.734375 25.419922 A 0.50005 0.50005 0 0 0 6.7753906 25.445312 A 0.50004997 0.50004997 0 0 0 6.7773438 25.445312 A 0.50005 0.50005 0 0 0 6.9179688 25.492188 A 0.50004997 0.50004997 0 0 0 6.9199219 25.492188 A 0.50005 0.50005 0 0 0 6.9667969 25.498047 A 0.50004997 0.50004997 0 0 0 6.96875 25.498047 A 0.50005 0.50005 0 0 0 6.9726562 25.498047 A 0.50004997 0.50004997 0 0 0 7.0039062 25.5 A 0.50005 0.50005 0 0 0 7.0175781 25.5 L 24.898438 25.5 A 0.50005 0.50005 0 0 0 25.503906 24.923828 L 25.503906 14.007812 A 0.50004997 0.50004997 0 0 0 25.464844 13.806641 A 0.50005006 0.50005006 0 0 0 25.21875 13.285156 L 23.503906 12.001953 L 23.503906 8.4804688 L 18.798828 8.4804688 L 16.285156 6.5996094 A 0.50005006 0.50005006 0 0 0 16.005859 6.5 z M 15.988281 7.625 L 17.130859 8.4804688 L 14.847656 8.4804688 L 15.988281 7.625 z M 9.5039062 9.4804688 L 22.503906 9.4804688 L 22.503906 11.251953 L 22.503906 12.501953 L 22.503906 14.673828 L 20.541016 15.898438 C 20.163188 14.79896 19.129821 13.996094 17.900391 13.996094 C 17.147003 13.996094 16.513158 14.350131 16.007812 14.832031 C 15.502717 14.349631 14.868188 13.996094 14.115234 13.996094 L 14.115234 14 C 12.879149 14 11.8317 14.810085 11.455078 15.919922 L 9.5039062 14.703125 L 9.5039062 12.484375 L 9.5039062 11.234375 L 9.5039062 9.4804688 z M 12.503906 10.46875 L 12.503906 11.53125 L 19.488281 11.53125 L 19.488281 10.46875 L 12.503906 10.46875 z M 11.503906 12.5 L 11.503906 13.5625 L 20.503906 13.5625 L 20.503906 12.5 L 11.503906 12.5 z M 8.5039062 13.234375 L 8.5039062 14.082031 L 7.8867188 13.697266 L 8.5039062 13.234375 z M 23.503906 13.25 L 24.085938 13.685547 L 23.705078 13.923828 L 23.503906 14.048828 L 23.503906 13.25 z M 24.503906 14.601562 L 24.503906 24.074219 L 19.287109 20.587891 A 0.50005 0.50005 0 0 0 19.003906 20.498047 L 19.003906 20.5 A 0.50005 0.50005 0 0 0 18.730469 21.419922 L 23.34375 24.5 L 8.6542969 24.5 L 13.273438 21.419922 A 0.50005 0.50005 0 0 0 12.986328 20.5 A 0.50005 0.50005 0 0 0 12.71875 20.587891 L 7.5039062 24.066406 L 7.5039062 14.634766 L 8.5039062 15.257812 L 11.308594 17.005859 C 11.366692 18.268511 12.050987 19.277311 12.892578 20.087891 C 13.780452 20.943091 14.853904 21.632934 15.697266 22.302734 A 0.50005 0.50005 0 0 0 16.328125 22.291016 C 17.20709 21.562416 18.239927 20.770266 19.089844 19.884766 C 19.899359 19.041264 20.560819 18.092241 20.681641 16.992188 L 23.503906 15.228516 L 23.503906 15.226562 L 24.503906 14.601562 z M 14.115234 14.992188 L 14.115234 15 C 14.735884 15 15.270707 15.304484 15.599609 15.771484 A 0.50005 0.50005 0 0 0 16.416016 15.771484 C 16.745394 15.307984 17.285922 14.998047 17.900391 14.998047 C 18.905572 14.998047 19.693206 15.796569 19.699219 16.792969 C 19.645469 17.587269 19.136851 18.397366 18.369141 19.197266 C 17.683077 19.912166 16.809423 20.594319 15.994141 21.261719 C 15.175373 20.637919 14.279936 20.035588 13.585938 19.367188 C 12.798045 18.608287 12.286612 17.818894 12.296875 16.808594 A 0.50005 0.50005 0 0 0 12.296875 16.796875 C 12.296875 15.799575 13.106194 14.992187 14.115234 14.992188 z " transform="translate(0,1020.3622)" id="path21896"/>
  </g>

	
	
	<metadata>
		<rdf:RDF xmlns:rdf="http://www.w3.org/1999/02/22-rdf-syntax-ns#" xmlns:rdfs="http://www.w3.org/2000/01/rdf-schema#" xmlns:dc="http://purl.org/dc/elements/1.1/">
			<rdf:Description about="https://iconscout.com/legal#licenses" dc:title="Mail, Email, Heart, Like, Letter, Envelope, Message" dc:description="Mail, Email, Heart, Like, Letter, Envelope, Message" dc:publisher="Iconscout" dc:date="2016-12-14" dc:format="image/svg+xml" dc:language="en">
				<dc:creator>
					<rdf:Bag>
						<rdf:li>Mohit Gandhi</rdf:li>
					</rdf:Bag>
				</dc:creator>
			</rdf:Description>
		</rdf:RDF>
    </metadata></svg>
