<?xml version="1.0" encoding="UTF-8" standalone="no"?>
<svg xmlns:dc="http://purl.org/dc/elements/1.1/" xmlns:cc="http://creativecommons.org/ns#" xmlns:rdf="http://www.w3.org/1999/02/22-rdf-syntax-ns#" xmlns:svg="http://www.w3.org/2000/svg" xmlns="http://www.w3.org/2000/svg" xmlns:sodipodi="http://sodipodi.sourceforge.net/DTD/sodipodi-0.dtd" xmlns:inkscape="http://www.inkscape.org/namespaces/inkscape" width="32px" height="32px" viewBox="0 0 32 32.000001" id="svg2" version="1.1" inkscape:version="0.91 r13725" sodipodi:docname="email mail verify verified inbox true right.svg">
  <defs id="defs4"/>
  <sodipodi:namedview id="base" pagecolor="#ffffff" bordercolor="#666666" borderopacity="1.0" inkscape:pageopacity="0.0" inkscape:pageshadow="2" inkscape:zoom="11.313709" inkscape:cx="29.452461" inkscape:cy="13.971683" inkscape:document-units="px" inkscape:current-layer="layer1" showgrid="false" units="px" inkscape:snap-bbox="true" inkscape:bbox-paths="true" inkscape:bbox-nodes="true" inkscape:snap-bbox-midpoints="true" inkscape:snap-bbox-edge-midpoints="true" inkscape:window-width="1366" inkscape:window-height="715" inkscape:window-x="-8" inkscape:window-y="-8" inkscape:window-maximized="1">
    <inkscape:grid type="xygrid" id="grid3358"/>
  </sodipodi:namedview>
  
  <g inkscape:label="Layer 1" inkscape:groupmode="layer" id="layer1" transform="translate(0,-1020.3622)">
    <path style="color:#000000;font-style:normal;font-variant:normal;font-weight:normal;font-stretch:normal;font-size:medium;line-height:normal;font-family:sans-serif;text-indent:0;text-align:start;text-decoration:none;text-decoration-line:none;text-decoration-style:solid;text-decoration-color:#000000;letter-spacing:normal;word-spacing:normal;text-transform:none;direction:ltr;block-progression:tb;writing-mode:lr-tb;baseline-shift:baseline;text-anchor:start;white-space:normal;clip-rule:nonzero;display:inline;overflow:visible;visibility:visible;opacity:1;isolation:auto;mix-blend-mode:normal;color-interpolation:sRGB;color-interpolation-filters:linearRGB;solid-color:#000000;solid-opacity:1;fill:#000000;fill-opacity:1;fill-rule:nonzero;stroke:none;stroke-width:0.99999994;stroke-linecap:round;stroke-linejoin:round;stroke-miterlimit:4;stroke-dasharray:none;stroke-dashoffset:1.29999995;stroke-opacity:1;color-rendering:auto;image-rendering:auto;shape-rendering:auto;text-rendering:auto;enable-background:accumulate" d="M 16.005859 6.5 C 15.989559 6.4998549 15.973271 6.5005098 15.957031 6.5019531 C 15.859381 6.5080731 15.765663 6.5427055 15.6875 6.6015625 L 13.179688 8.4804688 L 8.5039062 8.4804688 L 8.5039062 8.9804688 L 8.5039062 11.984375 L 6.8066406 13.255859 A 0.50005006 0.50005006 0 0 0 6.515625 13.890625 A 0.50004997 0.50004997 0 0 0 6.5039062 14.007812 L 6.5039062 24.974609 A 0.50005 0.50005 0 0 0 6.5058594 25.050781 A 0.50005 0.50005 0 0 0 6.5253906 25.148438 A 0.50004997 0.50004997 0 0 0 6.5429688 25.193359 A 0.50005 0.50005 0 0 0 6.5429688 25.195312 A 0.50004997 0.50004997 0 0 0 6.5644531 25.238281 A 0.50005 0.50005 0 0 0 6.5644531 25.240234 A 0.50005 0.50005 0 0 0 6.7324219 25.419922 A 0.50004997 0.50004997 0 0 0 6.734375 25.419922 A 0.50005 0.50005 0 0 0 6.7753906 25.445312 A 0.50004997 0.50004997 0 0 0 6.7773438 25.445312 A 0.50005 0.50005 0 0 0 6.9179688 25.492188 A 0.50004997 0.50004997 0 0 0 6.9199219 25.492188 A 0.50005 0.50005 0 0 0 6.9667969 25.498047 A 0.50004997 0.50004997 0 0 0 6.96875 25.498047 A 0.50005 0.50005 0 0 0 6.9726562 25.498047 A 0.50004997 0.50004997 0 0 0 7.0039062 25.5 A 0.50005 0.50005 0 0 0 7.0175781 25.5 L 24.898438 25.5 A 0.50005 0.50005 0 0 0 25.503906 24.923828 L 25.503906 14.007812 A 0.50004997 0.50004997 0 0 0 25.466797 13.810547 A 0.50005006 0.50005006 0 0 0 24.974609 13.21875 A 0.50005006 0.50005006 0 0 0 24.841797 13.236328 C 25.254486 12.562874 25.503908 11.779254 25.503906 10.933594 C 25.50391 8.4922936 23.518488 6.5 21.082031 6.5 C 19.831029 6.5 18.705378 7.0295303 17.900391 7.8710938 L 16.285156 6.5996094 C 16.204271 6.5389349 16.106888 6.5042009 16.005859 6.5 z M 21.082031 7.5 C 22.01626 7.5 22.859995 7.8748308 23.476562 8.4804688 L 23.46875 8.4804688 C 23.47883 8.4903334 23.493949 8.4939178 23.503906 8.5039062 C 24.122576 9.1244922 24.503908 9.9823436 24.503906 10.933594 C 24.503908 11.884844 24.122576 12.743184 23.503906 13.363281 C 23.219486 13.648358 22.874326 13.866594 22.503906 14.037109 L 22.503906 14.048828 C 22.070228 14.247382 21.591285 14.365234 21.082031 14.365234 C 19.187634 14.365234 17.662106 12.836094 17.662109 10.933594 C 17.662106 9.0310936 19.187634 7.5 21.082031 7.5 z M 15.988281 7.625 L 17.130859 8.4804688 L 14.847656 8.4804688 L 15.988281 7.625 z M 22.597656 9.4238281 A 0.50005 0.50005 0 0 0 22.546875 9.4277344 A 0.50005 0.50005 0 0 0 22.498047 9.4375 A 0.50005 0.50005 0 0 0 22.451172 9.4511719 A 0.50005 0.50005 0 0 0 22.404297 9.46875 A 0.50005 0.50005 0 0 0 22.382812 9.4804688 A 0.50005 0.50005 0 0 0 22.253906 9.5761719 L 20.603516 11.234375 L 19.902344 10.560547 A 0.50005 0.50005 0 0 0 19.539062 10.417969 A 0.50005 0.50005 0 0 0 19.330078 10.46875 A 0.50005 0.50005 0 0 0 19.300781 10.484375 A 0.50005 0.50005 0 0 0 19.257812 10.511719 A 0.50005 0.50005 0 0 0 19.21875 10.542969 A 0.50005 0.50005 0 0 0 19.183594 10.578125 A 0.50005 0.50005 0 0 0 19.152344 10.615234 A 0.50005 0.50005 0 0 0 19.123047 10.658203 A 0.50005 0.50005 0 0 0 19.099609 10.701172 A 0.50005 0.50005 0 0 0 19.080078 10.748047 A 0.50005 0.50005 0 0 0 19.066406 10.794922 A 0.50005 0.50005 0 0 0 19.056641 10.84375 A 0.50005 0.50005 0 0 0 19.050781 10.894531 A 0.50005 0.50005 0 0 0 19.050781 10.943359 A 0.50005 0.50005 0 0 0 19.056641 10.994141 A 0.50005 0.50005 0 0 0 19.066406 11.042969 A 0.50005 0.50005 0 0 0 19.080078 11.089844 A 0.50005 0.50005 0 0 0 19.101562 11.136719 A 0.50005 0.50005 0 0 0 19.125 11.179688 A 0.50005 0.50005 0 0 0 19.152344 11.220703 A 0.50005 0.50005 0 0 0 19.185547 11.259766 A 0.50005 0.50005 0 0 0 19.208984 11.283203 L 19.46875 11.53125 L 20.173828 12.207031 A 0.50005 0.50005 0 0 0 20.962891 12.291016 L 22.503906 10.742188 L 22.962891 10.28125 A 0.50005 0.50005 0 0 0 22.996094 10.244141 A 0.50005 0.50005 0 0 0 23.027344 10.205078 A 0.50005 0.50005 0 0 0 23.052734 10.162109 A 0.50005 0.50005 0 0 0 23.074219 10.117188 A 0.50005 0.50005 0 0 0 23.091797 10.070312 A 0.50005 0.50005 0 0 0 23.103516 10.021484 A 0.50005 0.50005 0 0 0 23.111328 9.9726562 A 0.50005 0.50005 0 0 0 23.113281 9.921875 A 0.50005 0.50005 0 0 0 23.111328 9.8730469 A 0.50005 0.50005 0 0 0 23.103516 9.8222656 A 0.50005 0.50005 0 0 0 23.089844 9.7734375 A 0.50005 0.50005 0 0 0 23.074219 9.7265625 A 0.50005 0.50005 0 0 0 23.050781 9.6816406 A 0.50005 0.50005 0 0 0 23.025391 9.640625 A 0.50005 0.50005 0 0 0 22.994141 9.5996094 A 0.50005 0.50005 0 0 0 22.960938 9.5644531 A 0.50005 0.50005 0 0 0 22.923828 9.53125 A 0.50005 0.50005 0 0 0 22.882812 9.5019531 A 0.50005 0.50005 0 0 0 22.837891 9.4765625 A 0.50005 0.50005 0 0 0 22.792969 9.4570312 A 0.50005 0.50005 0 0 0 22.746094 9.4414062 A 0.50005 0.50005 0 0 0 22.697266 9.4296875 A 0.50005 0.50005 0 0 0 22.646484 9.4238281 A 0.50005 0.50005 0 0 0 22.597656 9.4238281 z M 9.5039062 9.4804688 L 16.925781 9.4804688 C 16.815598 9.7957117 16.745376 10.126 16.708984 10.46875 L 12.503906 10.46875 L 12.503906 11.53125 L 16.722656 11.53125 C 16.76858 11.8671 16.843984 12.192215 16.960938 12.5 L 11.503906 12.5 L 11.503906 13.5625 L 17.544922 13.5625 C 17.810227 13.920113 18.125781 14.236416 18.484375 14.5 L 13.503906 14.5 L 13.503906 15.5625 L 18.503906 15.5625 L 18.503906 14.517578 C 19.231439 15.045755 20.11766 15.365234 21.082031 15.365234 C 21.21052 15.365234 21.331276 15.33897 21.457031 15.328125 L 15.986328 18.744141 L 9.5039062 14.703125 L 9.5039062 12.484375 L 9.5039062 11.234375 L 9.5039062 9.4804688 z M 8.5039062 13.234375 L 8.5039062 14.082031 L 7.8867188 13.697266 L 8.5039062 13.234375 z M 24.503906 14.601562 L 24.503906 24.074219 L 19.287109 20.587891 A 0.50005 0.50005 0 0 0 19.003906 20.498047 L 19.003906 20.5 A 0.50005 0.50005 0 0 0 18.730469 21.419922 L 23.34375 24.5 L 8.6542969 24.5 L 13.273438 21.419922 A 0.50005 0.50005 0 0 0 12.986328 20.5 A 0.50005 0.50005 0 0 0 12.71875 20.587891 L 7.5039062 24.066406 L 7.5039062 14.634766 L 8.5039062 15.257812 L 15.722656 19.757812 L 15.755859 19.779297 L 15.761719 19.779297 A 0.50005006 0.50005006 0 0 0 15.763672 19.78125 A 0.50005006 0.50005006 0 0 0 15.765625 19.78125 A 0.50005006 0.50005006 0 0 0 15.779297 19.787109 A 0.50005006 0.50005006 0 0 0 15.855469 19.814453 A 0.50005006 0.50005006 0 0 0 15.884766 19.822266 A 0.50005006 0.50005006 0 0 0 15.904297 19.826172 A 0.50005006 0.50005006 0 0 0 15.908203 19.826172 A 0.50005006 0.50005006 0 0 0 15.953125 19.832031 A 0.50005006 0.50005006 0 0 0 15.958984 19.832031 A 0.50005006 0.50005006 0 0 0 16.082031 19.824219 A 0.50005006 0.50005006 0 0 0 16.101562 19.820312 A 0.50005006 0.50005006 0 0 0 16.197266 19.787109 A 0.50005006 0.50005006 0 0 0 16.212891 19.779297 L 16.21875 19.779297 L 16.246094 19.761719 A 0.50005006 0.50005006 0 0 0 16.251953 19.757812 L 23.503906 15.228516 L 23.503906 15.226562 L 24.503906 14.601562 z " transform="translate(0,1020.3622)" id="path22041"/>
  </g>

	
	
	<metadata>
		<rdf:RDF xmlns:rdf="http://www.w3.org/1999/02/22-rdf-syntax-ns#" xmlns:rdfs="http://www.w3.org/2000/01/rdf-schema#" xmlns:dc="http://purl.org/dc/elements/1.1/">
			<rdf:Description about="https://iconscout.com/legal#licenses" dc:title="Email, Mail, Verify, Verified, Inbox, True, Right" dc:description="Email, Mail, Verify, Verified, Inbox, True, Right" dc:publisher="Iconscout" dc:date="2016-12-14" dc:format="image/svg+xml" dc:language="en">
				<dc:creator>
					<rdf:Bag>
						<rdf:li>Mohit Gandhi</rdf:li>
					</rdf:Bag>
				</dc:creator>
			</rdf:Description>
		</rdf:RDF>
    </metadata></svg>
